<?xml version="1.0" encoding="iso-8859-1"?>
<!-- Uploaded to: SVG Repo, www.svgrepo.com, Generator: SVG Repo Mixer Tools -->
<svg version="1.1" id="Layer_1" xmlns="http://www.w3.org/2000/svg" xmlns:xlink="http://www.w3.org/1999/xlink" 
	 viewBox="0 0 489.993 489.993" xml:space="preserve">
<g>
	<path style="fill:#A0E0E0;" d="M303.964,116.588V15.312h-58.731v101.276H303.964z M257.643,37.932h13.633
		c1.175-2.717,3.876-4.62,7.028-4.62c4.232,0,7.656,3.428,7.656,7.656v49.963c0,4.228-3.424,7.656-7.656,7.656h-16.65
		c-4.232,0-7.656-3.428-7.656-7.656c0-2.756,1.46-5.165,3.646-6.514L257.643,37.932L257.643,37.932z"/>
	<path style="fill:#D0F0F0;" d="M245.233,15.312h-59.206v101.276h59.206L245.233,15.312L245.233,15.312z M228.337,98.588h-16.65
		c-4.232,0-7.656-3.428-7.656-7.656c0-3.138,1.888-5.831,4.59-7.014V37.932h12.689c1.175-2.717,3.876-4.62,7.028-4.62
		c4.232,0,7.656,3.428,7.656,7.656v49.963C235.994,95.16,232.569,98.588,228.337,98.588z"/>
	<rect x="299.895" y="168.435" style="fill:#71D1D1;" width="20.72" height="15.312"/>
	<path style="fill:#71D1D1;" d="M320.615,399.061V199.06h-20.72v210.546c0,0-0.3,37.85-28.414,60.276
		C300.152,459.125,320.615,431.443,320.615,399.061z"/>
	<rect x="275.618" y="131.9" style="fill:#FBB03B;" width="36.668" height="21.223"/>
	<path style="fill:#A0E0E0;" d="M299.895,409.606V199.06h-1.307c-4.232,0-7.656-3.428-7.656-7.656c0-4.228,3.424-7.656,7.656-7.656
		h1.307v-15.312h-95.864v15.312h64.875c4.232,0,7.656,3.428,7.656,7.656c0,4.228-3.424,7.656-7.656,7.656h-64.875v21.941h8.494
		v155.331v9.28h-8.494v23.993c0,0-1.936,49.047,33.996,64.741c2.297,0.211,4.618,0.334,6.969,0.334
		c9.316,0,18.238-1.704,26.486-4.798C299.595,447.456,299.895,409.606,299.895,409.606z"/>
	<rect x="169.376" y="168.435" style="fill:#D0F0F0;" width="34.655" height="15.312"/>
	<path style="fill:#D0F0F0;" d="M204.031,409.606v-23.993l0,0h-0.972h-7.522v-9.28V221.001h7.319h1.176l0,0V199.06h-34.655v200.002
		c0,39.347,30.209,71.755,68.65,75.286C202.094,458.653,204.031,409.606,204.031,409.606z"/>
	<rect x="222.497" y="131.9" style="fill:#FCC062;" width="53.121" height="21.223"/>
	<rect x="177.705" y="131.9" style="fill:#FDD089;" width="44.792" height="21.223"/>
	<path style="fill:#71D1D1;" d="M270.648,83.275V40.969c0-1.079,0.226-2.105,0.628-3.036h-13.633v46.486
		c1.167-0.72,2.537-1.143,4.01-1.143h8.995V83.275z"/>
	<path style="fill:#71D1D1;" d="M220.681,83.275V40.969c0-1.079,0.226-2.105,0.628-3.036H208.62v45.986
		c0.939-0.411,1.975-0.642,3.066-0.642h8.995V83.275z"/>
	<path d="M328.271,153.123h-0.673v-28.879c0-4.228-3.424-7.656-7.656-7.656h-0.665V7.656c0-4.228-3.424-7.656-7.656-7.656h-133.25
		c-4.232,0-7.656,3.428-7.656,7.656v108.932h-0.665c-4.232,0-7.656,3.428-7.656,7.656v28.879h-0.673
		c-4.232,0-7.656,3.428-7.656,7.656v238.282c0,50.139,40.793,90.932,90.932,90.932s90.932-40.793,90.932-90.932V160.779
		C335.927,156.551,332.503,153.123,328.271,153.123z M186.027,15.312h59.206h58.731v101.276h-58.731h-59.206L186.027,15.312
		L186.027,15.312z M177.705,131.9h44.792h53.121h36.668v21.223h-36.668h-53.121h-44.792V131.9z M244.996,474.681
		c-2.351,0-4.672-0.123-6.969-0.334c-38.441-3.531-68.65-35.939-68.65-75.286V199.06h34.655h64.875c4.232,0,7.656-3.428,7.656-7.656
		c0-4.228-3.424-7.656-7.656-7.656h-64.875h-34.655v-15.312h34.655h95.864h20.72v15.312h-20.72h-1.307
		c-4.232,0-7.656,3.428-7.656,7.656c0,4.228,3.424,7.656,7.656,7.656h1.307h20.72v200.002c0,32.382-20.463,60.064-49.134,70.821
		C263.234,472.977,254.311,474.681,244.996,474.681z"/>
	<path d="M228.337,33.312c-3.151,0-5.853,1.903-7.028,4.62c-0.403,0.931-0.628,1.957-0.628,3.036v42.307h-8.994
		c-1.091,0-2.127,0.231-3.066,0.642c-2.702,1.182-4.59,3.876-4.59,7.014c0,4.228,3.424,7.656,7.656,7.656h16.65
		c4.232,0,7.656-3.428,7.656-7.656V40.969C235.994,36.74,232.569,33.312,228.337,33.312z"/>
	<path d="M253.997,90.932c0,4.228,3.424,7.656,7.656,7.656h16.65c4.232,0,7.656-3.428,7.656-7.656V40.969
		c0-4.228-3.424-7.656-7.656-7.656c-3.151,0-5.853,1.903-7.028,4.62c-0.403,0.931-0.628,1.957-0.628,3.036v42.307h-8.994
		c-1.473,0-2.843,0.423-4.01,1.143C255.458,85.766,253.997,88.175,253.997,90.932z"/>
	<polygon style="fill:#FFFFFF;" points="202.855,221.001 195.537,221.001 195.537,376.332 195.537,385.613 203.059,385.613 
		204.031,385.613 204.031,385.613 212.525,385.613 212.525,376.332 212.525,221.001 204.031,221.001 204.031,221.001 	"/>
</g>
</svg>