<?xml version="1.0" encoding="utf-8"?><!-- Uploaded to: SVG Repo, www.svgrepo.com, Generator: SVG Repo Mixer Tools -->
<svg fill="#000000" width="800px" height="800px" viewBox="0 0 24 24" id="power-bank" data-name="Flat Line" xmlns="http://www.w3.org/2000/svg" class="icon flat-line"><rect id="secondary" x="2" y="5" width="14" height="10" rx="1" transform="translate(19 1) rotate(90)" style="fill: rgb(44, 169, 188); stroke-width: 2;"></rect><polyline id="primary" points="9 12 10 10 8 10 9 8" style="fill: none; stroke: rgb(0, 0, 0); stroke-linecap: round; stroke-linejoin: round; stroke-width: 2;"></polyline><path id="primary-2" data-name="primary" d="M9,17v3a1,1,0,0,0,1,1h8a1,1,0,0,0,1-1V9" style="fill: none; stroke: rgb(0, 0, 0); stroke-linecap: round; stroke-linejoin: round; stroke-width: 2;"></path><path id="primary-3" data-name="primary" d="M13,17H5a1,1,0,0,1-1-1V4A1,1,0,0,1,5,3h8a1,1,0,0,1,1,1V16A1,1,0,0,1,13,17ZM20,5H18V8h2Z" style="fill: none; stroke: rgb(0, 0, 0); stroke-linecap: round; stroke-linejoin: round; stroke-width: 2;"></path></svg>